<?xml version="1.0" encoding="UTF-8"?>
<!DOCTYPE svg PUBLIC "-//W3C//DTD SVG 1.1//EN" "http://www.w3.org/Graphics/SVG/1.1/DTD/svg11.dtd">
<!-- Creator: CorelDRAW -->
<svg xmlns="http://www.w3.org/2000/svg" xml:space="preserve" width="164.478mm" height="75.3026mm" version="1.1" style="shape-rendering:geometricPrecision; text-rendering:geometricPrecision; image-rendering:optimizeQuality; fill-rule:evenodd; clip-rule:evenodd"
viewBox="0 0 94384.79 43212.03"
 xmlns:xlink="http://www.w3.org/1999/xlink"
 xmlns:xodm="http://www.corel.com/coreldraw/odm/2003">
 <defs>
  <style type="text/css">
   <![CDATA[
    .fil2 {fill:#F47A36}
    .fil1 {fill:#F0DD35}
    .fil3 {fill:#9860A6}
    .fil0 {fill:#53C7DE}
    .fil4 {fill:#868575;fill-rule:nonzero}
   ]]>
  </style>
 </defs>
 <g id="Katman_x0020_1">
  <metadata id="CorelCorpID_0Corel-Layer"/>
  <rect class="fil0" transform="matrix(2.25093E-014 0.849905 -8.49905E-001 2.25093E-014 38072.2 26587.8)" width="9342.2" height="29778.09" rx="3656.66" ry="3656.66"/>
  <path class="fil1" d="M25346.23 29695.51l0 1724.46c0,1709.31 -1398.46,3107.77 -3107.72,3107.77l-5576.51 0 0 5576.51c0,1709.31 -1398.52,3107.77 -3107.77,3107.77l-1724.46 0c-1709.31,0 -3107.77,-1398.46 -3107.77,-3107.77l0 -5576.51 -5576.51 0c-1709.31,0 -3107.77,-1398.46 -3107.77,-3107.77l0 -1724.46c0,-1709.26 1398.46,-3107.77 3107.77,-3107.77l5576.51 0 0 -5576.51c0,-1709.26 1398.46,-3107.77 3107.77,-3107.77l1724.46 0c1709.26,0 3107.77,1398.52 3107.77,3107.77l0 5576.51 5576.51 0c1709.26,0 3107.72,1398.52 3107.72,3107.77z"/>
  <path class="fil2" d="M36478.76 21059.83l-1219.36 1219.42c-1208.63,1208.63 -3186.39,1208.63 -4395.02,0l-3943.18 -3943.23 -3943.23 3943.23c-1208.63,1208.63 -3186.39,1208.63 -4395.02,0l-1219.36 -1219.42c-1208.63,-1208.63 -1208.63,-3186.39 0,-4395.02l3943.18 -3943.18 -3943.18 -3943.18c-1208.63,-1208.69 -1208.63,-3186.39 0,-4395.08l1219.36 -1219.36c1208.63,-1208.63 3186.39,-1208.63 4395.02,0l3943.23 3943.18 3943.18 -3943.18c1208.63,-1208.63 3186.39,-1208.63 4395.02,0l1219.36 1219.36c1208.69,1208.69 1208.69,3186.39 0,4395.08l-3943.18 3943.18 3943.18 3943.18c1208.69,1208.63 1208.69,3186.39 0,4395.02z"/>
  <rect class="fil3" transform="matrix(2.25093E-014 0.849905 -8.49905E-001 2.25093E-014 25308.6 8977.64)" width="9342.2" height="29778.09" rx="3656.66" ry="3656.66"/>
  <g id="_105553240397824">
   <rect class="fil3" transform="matrix(6.96079E-015 0.87608 -2.62825E-001 2.32026E-014 16596.4 -4.29281E-010)" width="9342.2" height="29778.09" rx="3656.66" ry="3656.66"/>
   <rect class="fil3" transform="matrix(6.96079E-015 0.87608 -2.62825E-001 2.32026E-014 16596.4 17903.5)" width="9342.2" height="29778.09" rx="3656.66" ry="3656.66"/>
  </g>
  <path class="fil4" d="M42388.11 13107.83l1285.41 0 1228.6 3607.76 1238.3 -3607.76 1290.35 0 0 7083.83 -890.55 0 0 -6261.51 -1265.96 3732.86 -728.04 0 -1272.44 -3732.86 0 6261.51 -885.67 0 0 -7083.83zm8632.53 822.32l-1014.1 3638.58 2028.14 0 -1014.04 -3638.58zm-581.82 -846.65l1166.86 0 2176.02 7108.16 -994.59 0 -524.9 -1852.6 -2489.68 0 -513.53 1852.6 -996.14 0 2175.96 -7108.16zm3742.62 0l5422.95 0 0 809.29 -2224.74 0 0 6298.87 -965.32 0 0 -6298.87 -2232.89 0 0 -809.29zm6297.26 0l966.93 0 0 2723.64 2632.69 0 0 -2723.64 966.93 0 0 7108.16 -966.93 0 0 -3575.23 -2632.69 0 0 3575.23 -966.93 0 0 -7108.16zm-18090.58 11374.01l1285.41 0 1228.6 3607.76 1238.3 -3607.76 1290.35 0 0 7083.83 -890.55 0 0 -6261.51 -1265.96 3732.86 -728.04 0 -1272.44 -3732.86 0 6261.51 -885.67 0 0 -7083.83zm8632.53 822.32l-1014.1 3638.58 2028.14 0 -1014.04 -3638.58zm-581.82 -846.65l1166.86 0 2176.02 7108.16 -994.59 0 -524.9 -1852.6 -2489.68 0 -513.53 1852.6 -996.14 0 2175.96 -7108.16zm8773.92 6523.13c-256.74,237.28 -546.01,417.64 -867.77,539.53 -323.42,121.88 -671.17,183.63 -1044.97,183.63 -901.91,0 -1603.95,-323.36 -2104.52,-968.54 -502.11,-646.78 -752.37,-1551.96 -752.37,-2717.16 0,-1160.37 253.47,-2067.16 762.12,-2715.55 507.05,-648.45 1213.97,-973.47 2117.55,-973.47 298.97,0 585.04,42.29 858.01,126.76 273.04,82.86 536.32,211.29 789.84,381.89l0 986.44c-256.8,-245.38 -520.08,-424.13 -789.84,-541.14 -269.76,-115.4 -555.77,-173.88 -858.01,-173.88 -624.06,0 -1093.69,242.11 -1405.75,726.37 -313.61,484.33 -469.63,1212.36 -469.63,2182.56 0,988.05 151.15,1719.35 455,2193.87 302.3,472.91 768.72,710.13 1397.6,710.13 212.9,0 398.13,-24.33 559.04,-73.11 160.91,-48.72 305.52,-126.76 435.55,-230.74l0 -1909.53 -1033.55 0 0 -789.78 1951.7 0 0 3061.69zm1571.48 -6523.13l3947.37 0 0 809.29 -1490.22 0 0 5489.58 1490.22 0 0 809.29 -3947.37 0 0 -809.29 1490.22 0 0 -5489.58 -1490.22 0 0 -809.29zm10022.03 6856.24c-245.43,130.03 -495.69,227.53 -752.43,292.55 -258.4,65.02 -531.44,97.5 -819.05,97.5 -911.73,0 -1618.65,-321.75 -2120.76,-966.93 -503.78,-643.51 -755.7,-1550.36 -755.7,-2718.76 0,-1160.37 253.52,-2067.16 760.57,-2715.55 505.39,-648.45 1210.7,-973.47 2115.88,-973.47 287.61,0 560.65,32.54 819.05,97.5 256.74,65.02 506.99,162.51 752.43,292.55l0 986.44c-235.68,-194.99 -487.54,-341.27 -757.3,-443.64 -269.76,-100.77 -541.19,-152.76 -814.17,-152.76 -625.66,0 -1093.69,242.11 -1404.08,724.77 -312.06,482.66 -468.09,1210.7 -468.09,2184.17 0,971.81 156.03,1698.18 468.09,2180.84 310.39,482.66 778.42,723.16 1404.08,723.16 279.52,0 552.5,-50.33 820.66,-151.09 268.16,-102.37 518.41,-250.25 750.82,-443.64l0 986.38zm-27631.62 4493.44l3947.37 0 0 809.29 -1490.22 0 0 5489.58 1490.22 0 0 809.29 -3947.37 0 0 -809.29 1490.22 0 0 -5489.58 -1490.22 0 0 -809.29zm5003.7 24.33l1313.07 0 2780.57 5830.9 0 -5830.9 1023.8 0 0 7083.83 -1314.68 0 -2778.96 -5832.5 0 5832.5 -1023.8 0 0 -7083.83zm11819.37 0l1285.41 0 1228.6 3607.76 1238.3 -3607.76 1290.35 0 0 7083.83 -890.55 0 0 -6261.51 -1265.96 3732.86 -728.04 0 -1272.44 -3732.86 0 6261.51 -885.67 0 0 -7083.83zm10007.34 3536.26c0,-1043.37 -107.25,-1789.25 -320.15,-2237.77 -214.5,-446.91 -567.13,-671.17 -1054.67,-671.17 -485.93,0 -835.35,224.26 -1049.85,671.17 -214.5,448.52 -321.75,1194.4 -321.75,2237.77 0,1041.64 107.25,1785.98 321.75,2232.89 214.5,448.52 563.92,671.11 1049.85,671.11 487.54,0 840.17,-222.59 1054.67,-667.9 212.9,-446.91 320.15,-1191.19 320.15,-2236.1zm1005.95 0c0,1238.3 -196.66,2161.33 -588.31,2770.75 -391.65,609.42 -989.65,914.94 -1792.46,914.94 -802.81,0 -1400.87,-303.91 -1790.86,-910.06 -390.04,-606.15 -585.04,-1530.85 -585.04,-2775.63 0,-1239.96 194.99,-2166.27 588.25,-2775.69 391.65,-609.42 988.1,-913.33 1787.64,-913.33 802.81,0 1400.81,303.91 1792.46,913.33 391.65,609.42 588.31,1535.72 588.31,2775.69zm780.03 -3560.59l5422.95 0 0 809.29 -2224.74 0 0 6298.87 -965.32 0 0 -6298.87 -2232.89 0 0 -809.29zm6602.78 0l3947.37 0 0 809.29 -1490.22 0 0 5489.58 1490.22 0 0 809.29 -3947.37 0 0 -809.29 1490.22 0 0 -5489.58 -1490.22 0 0 -809.29zm9220.83 3560.59c0,-1043.37 -107.25,-1789.25 -320.15,-2237.77 -214.5,-446.91 -567.13,-671.17 -1054.67,-671.17 -485.93,0 -835.35,224.26 -1049.85,671.17 -214.5,448.52 -321.75,1194.4 -321.75,2237.77 0,1041.64 107.25,1785.98 321.75,2232.89 214.5,448.52 563.92,671.11 1049.85,671.11 487.54,0 840.17,-222.59 1054.67,-667.9 212.9,-446.91 320.15,-1191.19 320.15,-2236.1zm1005.95 0c0,1238.3 -196.66,2161.33 -588.31,2770.75 -391.65,609.42 -989.65,914.94 -1792.46,914.94 -802.81,0 -1400.87,-303.91 -1790.86,-910.06 -390.04,-606.15 -585.04,-1530.85 -585.04,-2775.63 0,-1239.96 194.99,-2166.27 588.25,-2775.69 391.65,-609.42 988.1,-913.33 1787.64,-913.33 802.81,0 1400.81,303.91 1792.46,913.33 391.65,609.42 588.31,1535.72 588.31,2775.69zm646.78 -3536.26l1313.07 0 2780.57 5830.9 0 -5830.9 1023.8 0 0 7083.83 -1314.68 0 -2778.96 -5832.5 0 5832.5 -1023.8 0 0 -7083.83z"/>
 </g>
</svg>
